<?xml version="1.0" encoding="utf-8"?>
<!-- Generator: Adobe Illustrator 16.0.4, SVG Export Plug-In . SVG Version: 6.00 Build 0)  -->
<!DOCTYPE svg PUBLIC "-//W3C//DTD SVG 1.1//EN" "http://www.w3.org/Graphics/SVG/1.1/DTD/svg11.dtd">
<svg version="1.1" id="Layer_1" xmlns="http://www.w3.org/2000/svg" xmlns:xlink="http://www.w3.org/1999/xlink" x="0px" y="0px"
	 width="229.762px" height="62.595px" viewBox="0 0 229.762 62.595" enable-background="new 0 0 229.762 62.595"
	 xml:space="preserve">
<path id="lozenge_2_" fill="#D92632" d="M149.106,13.504c0,0-0.873-6.133-3.554-8.834c-3.399-3.544-7.21-3.562-8.957-3.77
	C124.085,0,105.319,0,105.319,0h-0.039c0,0-18.766,0-31.275,0.9c-1.748,0.207-5.558,0.226-8.958,3.77
	c-2.681,2.701-3.553,8.834-3.553,8.834S60.6,20.705,60.6,27.907v6.752c0,7.202,0.895,14.403,0.895,14.403s0.872,6.133,3.553,8.834
	c3.4,3.545,7.868,3.433,9.857,3.804c7.152,0.684,30.396,0.895,30.396,0.895s18.785-0.027,31.296-0.928
	c1.747-0.208,5.558-0.226,8.957-3.771c2.681-2.701,3.554-8.834,3.554-8.834S150,41.861,150,34.659v-6.752
	C150,20.705,149.106,13.504,149.106,13.504z"/>
<path id="u_3_" fill="#010101" d="M55.985,50.655h-5.688v-3.293c-2.156,2.472-3.984,3.72-5.978,3.72
	c-1.748,0-2.963-0.824-3.57-2.314c-0.369-0.906-0.631-2.321-0.631-4.399V20.417h5.688v22.454c0,1.271,0,1.797,0,2.096
	c0.133,0.84,0.49,1.147,1.213,1.147c1.089,0,2.074-0.946,3.278-2.645V20.417h5.688V50.655z"/>
<path id="o_2_" fill="#010101" d="M35.927,30.297c0-3.231-0.649-5.658-1.797-7.186c-1.516-2.068-3.892-2.915-6.287-2.915
	c-2.711,0-4.774,0.847-6.287,2.915c-1.166,1.527-1.791,3.98-1.791,7.212L19.76,41.075c0,3.213,0.556,5.433,1.721,6.945
	c1.514,2.062,3.968,3.154,6.362,3.154c2.396,0,4.892-1.092,6.407-3.154c1.147-1.513,1.677-3.732,1.677-6.945V30.297z M30.238,41.674
	c0.299,2.994-0.63,4.479-2.396,4.479c-1.766,0-2.693-1.485-2.394-4.479V29.698c-0.3-2.994,0.628-4.397,2.395-4.397
	s2.697,1.403,2.398,4.397L30.238,41.674z"/>
<path id="y_2_" fill="#010101" d="M13.473,34.188v16.467H7.484V34.188c0,0-6.205-20.188-7.484-23.95h6.287l4.201,15.771
	l4.182-15.771h6.287L13.473,34.188z"/>
<path id="e_2_" fill="#FFFFFF" d="M142.519,36.584l-0.001-6.12c0-3.197-0.63-5.537-1.764-7.05c-1.519-2.047-3.677-3.131-6.396-3.131
	c-2.768,0-4.926,1.084-6.493,3.131c-1.151,1.513-1.823,3.984-1.823,7.183v10.479c0,3.179,0.738,5.404,1.89,6.901
	c1.567,2.044,3.726,3.064,6.561,3.064c2.832,0,5.057-1.07,6.556-3.243c0.659-0.959,1.085-2.046,1.268-3.247
	c0.049-0.543,0.192-1.779,0.192-3.525v-0.849h-5.688c0,2.175,0.011,3.468-0.04,3.763c-0.31,1.449-1.087,2.175-2.421,2.175
	c-1.861,0-2.647-1.392-2.628-4.153v-5.377H142.519z M131.73,28.788c0-2.799,0.767-3.562,2.577-3.562
	c1.797,0,2.512,0.832,2.512,3.599v3.268l-5.089,0.006V28.788z"/>
<path id="b_2_" fill="#FFFFFF" d="M117.392,20.236c-1.994,0-3.976,1.227-5.727,3.381l0.006-13.08h-5.389v40.118h5.389l0.008-3.015
	c1.812,2.241,3.786,3.4,5.713,3.4c2.158,0,3.735-1.155,4.459-3.38c0.361-1.269,0.599-3.221,0.599-5.987V29.698
	c0-2.834-0.363-4.771-0.726-5.975C121.001,21.483,119.55,20.236,117.392,20.236z M116.761,41.973c0,2.994-0.706,4.142-2.269,4.142
	c-0.893,0-1.921-0.459-2.827-1.365l0.006-18.157c0.906-0.895,1.929-1.365,2.821-1.365c1.562,0,2.269,0.879,2.269,3.873V41.973z"/>
<path id="u_2_" fill="#FFFFFF" d="M101.791,50.655h-5.688v-3.293c-2.157,2.472-3.984,3.72-5.978,3.72
	c-1.748,0-2.963-0.824-3.57-2.314c-0.37-0.906-0.632-2.321-0.632-4.399V20.717h5.688v22.154c0,1.271,0,1.797,0,2.096
	c0.133,0.84,0.489,1.147,1.213,1.147c1.089,0,2.074-0.946,3.278-2.645V20.717h5.688V50.655z"/>
<polygon id="T_2_" fill="#FFFFFF" points="80.235,50.655 74.248,50.655 74.248,16.226 67.961,16.226 67.961,10.544 86.822,10.537 
	86.822,16.226 80.235,16.226 "/>
<path fill="#050606" d="M168.687,19.279c-0.364-1.054-0.854-1.93-1.467-2.618c-0.614-0.684-1.318-1.189-2.11-1.507
	c-0.799-0.318-1.642-0.483-2.536-0.483c-0.696,0-1.4,0.114-2.114,0.335c-0.711,0.221-1.366,0.591-1.963,1.105
	s-1.078,1.193-1.441,2.025c-0.364,0.84-0.545,1.873-0.545,3.097c0,1.034,0.173,1.908,0.521,2.617
	c0.349,0.716,0.786,1.317,1.315,1.806c0.531,0.495,1.11,0.9,1.742,1.219c0.626,0.318,1.21,0.576,1.74,0.775l4.174,1.4
	c0.895,0.196,1.777,0.551,2.659,1.07c0.877,0.514,1.657,1.192,2.337,2.026c0.676,0.839,1.234,1.866,1.663,3.095
	c0.431,1.229,0.646,2.68,0.646,4.352c0,2.062-0.315,3.819-0.942,5.271c-0.631,1.451-1.437,2.627-2.41,3.538
	c-0.979,0.909-2.08,1.558-3.308,1.954c-1.228,0.392-2.434,0.592-3.625,0.592c-3.018,0-5.462-1.06-7.334-3.173
	s-2.94-5.503-3.207-10.173h3.134c0.132,3.147,0.902,5.518,2.31,7.112c1.407,1.601,3.158,2.396,5.245,2.396
	c0.76,0,1.547-0.123,2.361-0.363c0.811-0.247,1.563-0.665,2.26-1.254c0.699-0.593,1.267-1.34,1.714-2.25
	c0.45-0.909,0.673-2.029,0.673-3.354c0-1.128-0.157-2.074-0.471-2.843c-0.317-0.759-0.741-1.396-1.27-1.911
	c-0.531-0.52-1.136-0.946-1.813-1.291c-0.681-0.343-1.366-0.638-2.063-0.885l-4.025-1.327c-1.029-0.396-1.974-0.849-2.832-1.368
	c-0.863-0.514-1.617-1.151-2.264-1.913c-0.646-0.762-1.152-1.697-1.517-2.803c-0.363-1.105-0.548-2.469-0.548-4.094
	c0-1.913,0.293-3.562,0.871-4.937c0.579-1.378,1.335-2.483,2.264-3.315c0.927-0.839,1.963-1.452,3.106-1.848
	c1.141-0.391,2.278-0.585,3.406-0.585c1.288,0,2.492,0.246,3.602,0.735c1.109,0.493,2.086,1.254,2.934,2.283
	c0.845,1.033,1.514,2.313,2.01,3.836c0.5,1.522,0.779,3.317,0.847,5.379h-3.131C169.247,21.577,169.05,20.337,168.687,19.279z"/>
<path fill="#050606" d="M183.598,22.022v2.962h-3.895v19.474c0,1.158,0.104,2.064,0.314,2.717c0.211,0.65,0.735,1.014,1.576,1.088
	c0.668,0,1.336-0.055,2.004-0.168v2.967c-0.348,0-0.694,0.02-1.038,0.055c-0.347,0.039-0.694,0.059-1.04,0.059
	c-1.559,0-2.648-0.457-3.264-1.375c-0.618-0.912-0.916-2.6-0.891-5.062V24.984h-3.34v-2.962h3.34V13.35h2.338v8.673H183.598z"/>
<path fill="#050606" d="M186.65,25.968c0.393-1.234,0.932-2.241,1.611-3.025c0.682-0.781,1.479-1.358,2.395-1.732
	c0.913-0.371,1.928-0.558,3.04-0.558c0.841,0,1.683,0.121,2.523,0.363s1.597,0.698,2.264,1.37c0.667,0.672,1.212,1.616,1.63,2.826
	c0.423,1.214,0.633,2.791,0.633,4.727v15.331c0,1.422,0.457,2.128,1.373,2.128c0.271,0,0.518-0.074,0.74-0.223v2.967
	c-0.271,0.074-0.512,0.129-0.723,0.167c-0.211,0.035-0.475,0.056-0.797,0.056c-0.594,0-1.07-0.121-1.428-0.362
	c-0.359-0.244-0.639-0.591-0.836-1.035c-0.199-0.449-0.328-0.98-0.389-1.597c-0.062-0.616-0.092-1.296-0.092-2.042h-0.076
	c-0.422,0.934-0.846,1.762-1.281,2.49c-0.432,0.727-0.912,1.336-1.445,1.819c-0.531,0.484-1.137,0.854-1.817,1.116
	s-1.49,0.395-2.43,0.395c-0.89,0-1.726-0.16-2.505-0.477s-1.459-0.818-2.039-1.51c-0.582-0.691-1.041-1.569-1.374-2.631
	c-0.334-1.062-0.499-2.322-0.499-3.777c0-2.015,0.295-3.588,0.89-4.728c0.593-1.14,1.376-2.007,2.355-2.604
	c0.978-0.593,2.077-1.015,3.302-1.257c1.224-0.241,2.466-0.477,3.729-0.699c0.494-0.077,0.926-0.167,1.299-0.281
	c0.371-0.111,0.678-0.307,0.927-0.588c0.245-0.277,0.44-0.66,0.574-1.148c0.138-0.483,0.204-1.117,0.204-1.901
	c0-1.194-0.129-2.174-0.388-2.939c-0.261-0.761-0.618-1.37-1.076-1.819c-0.458-0.445-0.991-0.753-1.597-0.921
	s-1.256-0.254-1.946-0.254c-1.485,0-2.696,0.535-3.636,1.596c-0.941,1.062-1.436,2.771-1.485,5.121h-2.337
	C186.019,28.654,186.254,27.198,186.65,25.968z M198.334,34.582c-0.147,0.414-0.433,0.711-0.852,0.897
	c-0.422,0.188-0.792,0.315-1.113,0.39c-0.99,0.263-2.01,0.496-3.061,0.699c-1.051,0.207-2.012,0.516-2.875,0.925
	c-0.867,0.411-1.576,0.999-2.135,1.761c-0.557,0.766-0.834,1.858-0.834,3.275c0,0.893,0.117,1.689,0.353,2.376
	c0.235,0.69,0.551,1.288,0.946,1.792c0.394,0.503,0.852,0.887,1.372,1.146c0.521,0.262,1.05,0.391,1.597,0.391
	c0.89,0,1.741-0.203,2.559-0.613c0.815-0.412,1.527-1.01,2.133-1.791c0.605-0.783,1.09-1.736,1.447-2.853
	c0.359-1.12,0.537-2.389,0.537-3.806v-4.59H198.334z"/>
<path fill="#050606" d="M212.432,22.022v2.962h-3.896v19.473c0,1.16,0.104,2.064,0.315,2.717s0.736,1.014,1.576,1.088
	c0.668,0,1.336-0.055,2.004-0.168v2.967c-0.348,0-0.693,0.02-1.039,0.055c-0.346,0.039-0.692,0.059-1.039,0.059
	c-1.559,0-2.647-0.457-3.264-1.375c-0.618-0.912-0.916-2.598-0.89-5.061V24.984h-3.341v-2.962h3.341V13.35h2.336v8.673H212.432z"/>
<path fill="#050606" d="M226.312,27.418c-0.271-0.8-0.637-1.464-1.095-1.987c-0.458-0.519-0.983-0.902-1.575-1.144
	c-0.596-0.242-1.225-0.367-1.893-0.367c-0.52,0-1.045,0.086-1.578,0.254c-0.53,0.167-1.02,0.449-1.465,0.839
	c-0.444,0.39-0.805,0.905-1.076,1.537c-0.271,0.637-0.406,1.421-0.406,2.35c0,0.785,0.129,1.448,0.389,1.986
	c0.261,0.542,0.587,1,0.982,1.37c0.396,0.375,0.828,0.684,1.3,0.926c0.468,0.24,0.903,0.436,1.299,0.588l3.115,1.062
	c0.668,0.148,1.327,0.418,1.985,0.812c0.654,0.389,1.236,0.904,1.744,1.537c0.504,0.637,0.921,1.416,1.242,2.35
	c0.32,0.932,0.48,2.033,0.48,3.303c0,1.564-0.235,2.898-0.703,4c-0.471,1.1-1.071,1.994-1.799,2.686
	c-0.73,0.689-1.553,1.182-2.469,1.482c-0.916,0.297-1.816,0.449-2.706,0.449c-2.252,0-4.076-0.805-5.474-2.408
	s-2.194-4.178-2.394-7.721h2.339c0.099,2.389,0.674,4.188,1.724,5.398c1.051,1.213,2.357,1.818,3.915,1.818
	c0.567,0,1.154-0.094,1.763-0.277c0.605-0.188,1.167-0.504,1.687-0.951c0.521-0.449,0.945-1.016,1.279-1.707
	c0.336-0.691,0.502-1.541,0.502-2.547c0-0.855-0.117-1.574-0.352-2.156c-0.236-0.576-0.552-1.061-0.947-1.451
	c-0.396-0.395-0.847-0.719-1.354-0.98c-0.508-0.26-1.02-0.482-1.54-0.672l-3.005-1.006c-0.768-0.301-1.473-0.645-2.113-1.039
	c-0.645-0.389-1.206-0.873-1.689-1.451c-0.482-0.578-0.859-1.287-1.132-2.127c-0.271-0.839-0.409-1.874-0.409-3.106
	c0-1.452,0.219-2.705,0.65-3.748c0.432-1.045,0.996-1.884,1.689-2.517c0.691-0.637,1.465-1.102,2.318-1.402
	c0.852-0.297,1.701-0.444,2.542-0.444c0.962,0,1.86,0.187,2.688,0.558c0.828,0.375,1.557,0.952,2.189,1.732
	c0.631,0.784,1.13,1.756,1.5,2.912c0.373,1.155,0.582,2.518,0.632,4.083h-2.337C226.731,29.163,226.584,28.222,226.312,27.418z"/>
</svg>
